<svg width="21" height="26" viewBox="0 0 21 26" fill="none" xmlns="http://www.w3.org/2000/svg">
<path d="M20.1666 25.5833H0.833252V23.1667C0.833252 21.5643 1.46978 20.0276 2.60282 18.8946C3.73585 17.7615 5.27257 17.125 6.87492 17.125H14.1249C15.7273 17.125 17.264 17.7615 18.397 18.8946C19.5301 20.0276 20.1666 21.5643 20.1666 23.1667V25.5833ZM10.4999 14.7083C9.54783 14.7083 8.60507 14.5208 7.72546 14.1565C6.84585 13.7921 6.04662 13.2581 5.37339 12.5849C4.70017 11.9116 4.16614 11.1124 3.80179 10.2328C3.43745 9.35319 3.24992 8.41043 3.24992 7.45834C3.24992 6.50626 3.43745 5.5635 3.80179 4.68389C4.16614 3.80428 4.70017 3.00504 5.37339 2.33182C6.04662 1.65859 6.84585 1.12456 7.72546 0.760217C8.60507 0.39587 9.54783 0.208343 10.4999 0.208344C12.4227 0.208344 14.2668 0.972181 15.6264 2.33182C16.9861 3.69146 17.7499 5.53552 17.7499 7.45834C17.7499 9.38116 16.9861 11.2252 15.6264 12.5849C14.2668 13.9445 12.4227 14.7083 10.4999 14.7083Z" />
</svg>
