<svg width="100%" height="100%" viewBox="0 0 9 9" fill="none" xmlns="http://www.w3.org/2000/svg">
<path d="M0.825026 8.06241C0.462292 7.70047 0.15345 7.37522 0.138712 7.33964C0.0858524 7.21202 0.193449 7.06844 0.341941 7.06844C0.402744 7.06844 0.444476 7.093 0.544551 7.18764L0.670584 7.30684L1.26002 6.7174L1.84947 6.12795L1.54811 5.8238C1.38236 5.65652 1.23531 5.49709 1.22133 5.46953C1.18576 5.39942 1.18963 5.21974 1.22832 5.14493C1.28135 5.04237 1.4806 4.87162 1.58307 4.84092C1.78645 4.77999 1.76849 4.7656 2.91264 5.90589C3.48456 6.47589 3.96727 6.97013 3.98532 7.0042C4.02725 7.08333 4.02758 7.259 3.98593 7.3395C3.92893 7.44973 3.71071 7.6374 3.61968 7.65448C3.43644 7.68886 3.38683 7.66043 3.05342 7.3303C2.8825 7.16104 2.73285 7.02255 2.72088 7.02255C2.70891 7.02255 2.43875 7.28277 2.12052 7.60082L1.54192 8.17908L1.66719 8.31041C1.81805 8.46857 1.83142 8.54739 1.72538 8.65342C1.67487 8.70394 1.63687 8.7205 1.57142 8.7205C1.4882 8.7205 1.45658 8.69262 0.825004 8.06242L0.825026 8.06241ZM7.2746 8.65342C7.16856 8.54739 7.18194 8.46857 7.33279 8.31041L7.45806 8.17908L6.87946 7.60082C6.56123 7.28277 6.29107 7.02255 6.2791 7.02255C6.26713 7.02255 6.11749 7.16104 5.94656 7.3303C5.61316 7.66045 5.56354 7.68885 5.3803 7.65448C5.28928 7.6374 5.07105 7.44973 5.01405 7.3395C4.97246 7.25907 4.97274 7.0834 5.01457 7.0042C5.03258 6.97013 5.52045 6.4707 6.09873 5.89436C7.12025 4.87628 7.15313 4.84604 7.25509 4.83115C7.42922 4.80572 7.58193 4.89207 7.7382 5.10434C7.78967 5.17426 7.80409 5.21849 7.80409 5.30662C7.80409 5.36865 7.79265 5.44196 7.77866 5.46953C7.76468 5.49709 7.61763 5.65652 7.45188 5.8238L7.15052 6.12795L7.73996 6.7174L8.3294 7.30684L8.45544 7.18764C8.55551 7.09299 8.59724 7.06844 8.65805 7.06844C8.80654 7.06844 8.91414 7.21202 8.86128 7.33964C8.84654 7.37522 8.53769 7.70047 8.17496 8.06241C7.54338 8.69261 7.51176 8.72049 7.42855 8.72049C7.3631 8.72049 7.3251 8.70394 7.27458 8.65342L7.2746 8.65342ZM3.12883 5.73169C2.86077 5.46341 2.64145 5.23299 2.64145 5.21964C2.64145 5.20629 2.79641 5.02146 2.9858 4.80891C3.17519 4.59636 3.32443 4.41635 3.31745 4.40889C3.31046 4.40144 2.70893 3.86358 1.98072 3.21366C0.922859 2.26953 0.646391 2.01123 0.605446 1.92873C0.561404 1.84 0.544302 1.71783 0.483818 1.0599C0.44511 0.638824 0.419351 0.288398 0.426578 0.281172C0.433802 0.273945 0.788226 0.299559 1.21418 0.338091C1.85887 0.396409 2.00414 0.416053 2.08111 0.45532C2.14833 0.489611 2.48951 0.856975 3.33061 1.80071C3.96698 2.51473 4.49321 3.09893 4.5 3.09893C4.5068 3.09893 5.03302 2.51473 5.66939 1.80071C6.5105 0.856975 6.85168 0.489611 6.91889 0.45532C6.99586 0.416053 7.14113 0.396409 7.78582 0.338091C8.21178 0.299559 8.56595 0.2737 8.57288 0.280627C8.57983 0.287555 8.55417 0.63779 8.51589 1.05893C8.45583 1.71981 8.43926 1.83883 8.39481 1.92831C8.35358 2.01131 8.07933 2.2676 7.01938 3.21366C6.29122 3.86358 5.68954 4.40159 5.68232 4.40923C5.67509 4.41687 5.82429 4.5969 6.01386 4.80929C6.20344 5.02168 6.35856 5.20653 6.35856 5.22008C6.35856 5.23362 6.13773 5.46536 5.86782 5.73504C5.5172 6.08538 5.36816 6.22001 5.34582 6.20657C5.32862 6.19623 5.13127 6.02359 4.90725 5.82292L4.49995 5.45807L4.07479 5.83877C3.84095 6.04816 3.64211 6.21947 3.63292 6.21947C3.62373 6.21947 3.39689 5.99997 3.12883 5.73169Z" fill="currentColor"/>
</svg>
