<svg width="auto" height="auto" viewBox="0 0 9 11" fill="none" xmlns="http://www.w3.org/2000/svg">
<path d="M4.14034 10.6818C2.0326 9.37959 1.70604 9.15583 1.28081 8.72238C0.982464 8.41826 0.734247 8.01882 0.583945 7.60095L0.47183 7.28925L0.457458 4.38306L0.443085 1.47688L1.1528 1.45027C1.91887 1.42154 2.46886 1.32738 2.90447 1.15038C3.25048 1.00978 3.89118 0.621221 4.23588 0.342929L4.49926 0.130291L4.78736 0.359081C5.1583 0.653657 5.74112 1.00637 6.09367 1.14962C6.53112 1.32737 7.08014 1.4215 7.84721 1.45027L8.55692 1.47688L8.54255 4.38306L8.52818 7.28925L8.41607 7.60095C8.19327 8.22035 7.81265 8.71191 7.18455 9.19142C6.88242 9.42207 6.16481 9.88521 5.25932 10.4339C4.96482 10.6124 4.6735 10.7912 4.61194 10.8312C4.50623 10.8999 4.47999 10.8916 4.14034 10.6818ZM5.00978 9.54752C6.68209 8.51411 7.23776 8.06253 7.47852 7.54122L7.61704 7.24129L7.63107 4.78363L7.6451 2.32596H7.43355C6.67853 2.32596 5.48009 1.92875 4.76425 1.44126C4.55993 1.30211 4.48478 1.27354 4.42857 1.31363C3.66246 1.86 2.63679 2.24189 1.75305 2.30982L1.35494 2.34042L1.36895 4.79085L1.38296 7.24129L1.52149 7.54122C1.76164 8.06121 2.24324 8.45459 3.9725 9.54326C4.23625 9.70931 4.46565 9.84733 4.48228 9.84999C4.49891 9.85267 4.73628 9.71653 5.00978 9.54752ZM4.52398 5.56453V2.3772L4.94358 2.58692C5.39079 2.81045 6.17417 3.07805 6.5201 3.12547L6.72988 3.15422V5.07472C6.72988 7.31867 6.74613 7.23531 6.22855 7.64716C5.95412 7.86553 4.60592 8.75185 4.54818 8.75185C4.53487 8.75185 4.52398 7.31756 4.52398 5.56453Z" fill="currentColor"/>
</svg>
